<svg width="27" height="19" viewBox="0 0 27 19" fill="none" xmlns="http://www.w3.org/2000/svg">
<path d="M19 13C19 13.1978 18.9414 13.3912 18.8315 13.5556C18.7216 13.7201 18.5654 13.8482 18.3827 13.9239C18.2 13.9996 17.9989 14.0194 17.8049 13.9808C17.6109 13.9422 17.4328 13.847 17.2929 13.7071C17.153 13.5673 17.0578 13.3891 17.0192 13.1951C16.9806 13.0011 17.0004 12.8001 17.0761 12.6174C17.1518 12.4346 17.28 12.2784 17.4444 12.1686C17.6089 12.0587 17.8022 12 18 12C18.2652 12 18.5196 12.1054 18.7071 12.2929C18.8946 12.4805 19 12.7348 19 13ZM9.00001 12C8.80222 12 8.60888 12.0587 8.44444 12.1686C8.27999 12.2784 8.15181 12.4346 8.07613 12.6174C8.00044 12.8001 7.98064 13.0011 8.01922 13.1951C8.05781 13.3891 8.15305 13.5673 8.2929 13.7071C8.43275 13.847 8.61093 13.9422 8.80492 13.9808C8.9989 14.0194 9.19996 13.9996 9.38269 13.9239C9.56542 13.8482 9.72159 13.7201 9.83148 13.5556C9.94136 13.3912 10 13.1978 10 13C10 12.7348 9.89465 12.4805 9.70711 12.2929C9.51958 12.1054 9.26522 12 9.00001 12ZM27 14.5V17.5C27 17.8979 26.842 18.2794 26.5607 18.5607C26.2794 18.842 25.8978 19 25.5 19H1.50001C1.10218 19 0.72065 18.842 0.439346 18.5607C0.158041 18.2794 5.94154e-06 17.8979 5.94154e-06 17.5V14.6413C-0.0018082 12.6948 0.411834 10.7703 1.21329 8.99643C2.01475 7.22258 3.18557 5.6402 4.64751 4.35503L1.14751 0.855034C1.05369 0.761214 1.00098 0.633966 1.00098 0.501284C1.00098 0.368602 1.05369 0.241354 1.14751 0.147534C1.24133 0.0537136 1.36857 0.00100565 1.50126 0.00100565C1.63394 0.00100565 1.76119 0.0537136 1.85501 0.147534L5.42626 3.71878C7.73467 1.96352 10.5526 1.00901 13.4525 1.00003H13.5C16.421 0.991861 19.2645 1.93869 21.5975 3.69628L25.1463 0.146284C25.2401 0.0524633 25.3673 -0.000244141 25.5 -0.000244141C25.6327 -0.000244141 25.7599 0.0524633 25.8538 0.146284C25.9476 0.240104 26.0003 0.367352 26.0003 0.500034C26.0003 0.632716 25.9476 0.759964 25.8538 0.853784L22.375 4.33003C22.5975 4.52503 22.815 4.72628 23.0263 4.93753C24.2896 6.18835 25.2915 7.67795 25.9737 9.31962C26.6559 10.9613 27.0048 12.7223 27 14.5ZM26 14.5C26 12.8585 25.6767 11.2331 25.0485 9.71649C24.4203 8.19992 23.4996 6.82193 22.3388 5.6612C21.1781 4.50047 19.8001 3.57972 18.2835 2.95154C16.767 2.32336 15.1415 2.00003 13.5 2.00003H13.4563C6.58751 2.02378 1.00001 7.69503 1.00001 14.6413V17.5C1.00001 17.6326 1.05268 17.7598 1.14645 17.8536C1.24022 17.9474 1.3674 18 1.50001 18H25.5C25.6326 18 25.7598 17.9474 25.8536 17.8536C25.9473 17.7598 26 17.6326 26 17.5V14.5Z" fill="black"/>
</svg>
