<svg width="25" height="28" viewBox="0 0 25 28" fill="none" xmlns="http://www.w3.org/2000/svg">
<path d="M24.7838 21.1863C22.4825 19.605 22 16.95 22 15C22 12.6038 23.7813 10.5588 24.8438 9.55375C24.8931 9.50702 24.9324 9.45072 24.9593 9.38829C24.9862 9.32586 25 9.2586 25 9.19063C25 9.12265 24.9862 9.0554 24.9593 8.99296C24.9324 8.93053 24.8931 8.87423 24.8438 8.8275C23.375 7.435 20.8238 6.5 18.5 6.5C16.7039 6.50224 14.9542 7.07087 13.5 8.125C11.8671 6.93269 9.86079 6.36533 7.84528 6.52587C5.82977 6.68642 3.9386 7.56423 2.51501 9C1.68759 9.84586 1.03859 10.8494 0.606547 11.9509C0.17451 13.0525 -0.0317532 14.2297 8.49296e-06 15.4125C0.0484223 17.4557 0.503336 19.4687 1.3382 21.3342C2.17306 23.1996 3.37114 24.8801 4.86251 26.2775C5.69687 27.0658 6.80217 27.5034 7.95001 27.5H18.9125C19.5258 27.5012 20.1328 27.3764 20.696 27.1335C21.2591 26.8905 21.7663 26.5345 22.1863 26.0875C23.0238 25.1883 23.7475 24.1896 24.3413 23.1138C25.1013 21.7262 25.0188 21.5363 24.9588 21.3988C24.9215 21.3129 24.8608 21.2393 24.7838 21.1863ZM21.4538 25.4075C21.1274 25.7537 20.7335 26.0293 20.2964 26.2172C19.8593 26.4051 19.3883 26.5014 18.9125 26.5H7.95001C7.05824 26.5024 6.19959 26.1623 5.55126 25.55C4.1556 24.2431 3.03431 22.6712 2.25288 20.9261C1.47145 19.181 1.04553 17.2978 1.00001 15.3862C0.97164 14.3388 1.1541 13.2964 1.53654 12.3208C1.91898 11.3453 2.4936 10.4566 3.22626 9.7075C3.91319 9.00581 4.73381 8.44893 5.63962 8.06978C6.54543 7.69062 7.51805 7.49688 8.50001 7.5H8.60501C10.2739 7.51705 11.8883 8.09614 13.1875 9.14375C13.2762 9.21475 13.3864 9.25344 13.5 9.25344C13.6136 9.25344 13.7238 9.21475 13.8125 9.14375C15.1397 8.07347 16.795 7.493 18.5 7.5C20.39 7.5 22.4313 8.17625 23.7638 9.21625C22.585 10.4275 21 12.52 21 15C21 17.9738 22 20.305 23.89 21.7712C23.2818 23.1082 22.4589 24.3365 21.4538 25.4075ZM14.0163 3.875C14.2657 2.90878 14.8293 2.05288 15.6183 1.44193C16.4074 0.830984 17.3771 0.499636 18.375 0.5H18.5C18.6326 0.5 18.7598 0.552679 18.8536 0.646447C18.9473 0.740215 19 0.867392 19 1C19 1.13261 18.9473 1.25979 18.8536 1.35355C18.7598 1.44732 18.6326 1.5 18.5 1.5H18.375C17.5989 1.49975 16.8447 1.75748 16.231 2.23266C15.6174 2.70784 15.179 3.37352 14.985 4.125C14.9573 4.23247 14.8945 4.32766 14.8067 4.39555C14.7189 4.46345 14.611 4.5002 14.5 4.5C14.4578 4.50006 14.4158 4.4946 14.375 4.48375C14.2468 4.45051 14.1369 4.36774 14.0697 4.2536C14.0024 4.13946 13.9832 4.00329 14.0163 3.875Z" fill="black"/>
</svg>
