<svg xmlns="http://www.w3.org/2000/svg" viewBox="0 0 64 64"><defs><style>.cls-1{fill:none;stroke:#000;stroke-linecap:round;stroke-miterlimit:10;stroke-width:2px;}</style></defs><title>01</title><g id="Line_copy" data-name="Line copy"><path d="M59.456,26.67627a.98247.98247,0,0,0-.18145-.33991.97519.97519,0,0,0-.46308-.31195.9561.9561,0,0,0-.20038-.04046.92585.92585,0,0,0-.09692-.01959H32.21484V38.03564H47.95551a17.36527,17.36527,0,0,1-28.22229,6.254l-.0091-.01373c-.00653-.00653-.0155-.00836-.02215-.01471a17.37376,17.37376,0,0,1-.658-24.32465A17.41943,17.41943,0,0,1,31.77051,14.397a17.12441,17.12441,0,0,1,12.481,5.3208.98929.98929,0,0,0,.72535.304l.00122.00024c.00671,0,.013-.00372.01971-.00384a.992.992,0,0,0,.34863-.06787,1.02451,1.02451,0,0,0,.11866-.07508.96072.96072,0,0,0,.2-.12664l.00806-.0116.012-.00794,6.106-6.10595a.99965.99965,0,0,0,0-1.41407c-.01642-.01641-.0384-.02191-.05567-.037a27.94943,27.94943,0,0,0-40.00348.51794l-.0014.001-.00092.0014-.01617.01618A27.98216,27.98216,0,0,0,12.188,51.779c.00567.006.00732.014.01318.01984s.01386.00751.01984.01318a27.97955,27.97955,0,0,0,39.12616.41944l.01526-.01575.0028-.00183.00214-.00318A27.60253,27.60253,0,0,0,59.49512,37.23a27.34075,27.34075,0,0,0,0-10.46A.92714.92714,0,0,0,59.456,26.67627ZM32,6a25.70814,25.70814,0,0,1,17.6463,6.93964l-4.69324,4.69323A19.07759,19.07759,0,0,0,31.77051,12.397a19.41729,19.41729,0,0,0-13.44843,5.45746l-4.4693-4.45886A25.729,25.729,0,0,1,32,6ZM12.47485,14.8457l4.47974,4.4693a19.28363,19.28363,0,0,0,.66736,25.649l-4.69367,4.69366a25.96358,25.96358,0,0,1-.45343-34.81195Zm1.8675,36.226,4.717-4.717a19.28143,19.28143,0,0,0,25.19763.17913l4.95251,4.94184a25.9625,25.9625,0,0,1-34.86712-.404Zm43.1889-14.21967a25.5947,25.5947,0,0,1-6.88446,13.23181l-4.92011-4.90948a19.37153,19.37153,0,0,0,4.59217-7.85211,1.34061,1.34061,0,0,1,.042-.28663c0-.019-.00977-.03479-.0108-.05352a.9602.9602,0,0,0-.04108-.20325.8356.8356,0,0,0-.431-.57843.95943.95943,0,0,0-.18243-.09723c-.01758-.00635-.02991-.02014-.048-.02557a1.36159,1.36159,0,0,1-.28662-.042h-15.146V27.96436H57.67175a25.17521,25.17521,0,0,1-.1405,8.88769Z"/></g><g id="Line"><path class="cls-1" d="M58.514,26.9645a26.32969,26.32969,0,0,1,0,10.071,27.02588,27.02588,0,1,1-7.4385-24.111"/><path class="cls-1" d="M44.9735,19.0265a18.33688,18.33688,0,1,0,4.3875,18.009"/><polyline class="cls-1" points="49.361 37.036 36.145 37.036 33.215 37.036 33.215 34.12 33.215 26.965 49.496 26.965 58.514 26.965"/><line class="cls-1" x1="19.01712" y1="44.98288" x2="12.90812" y2="51.09188"/><line class="cls-1" x1="50.657" y1="51.5075" x2="44.312" y2="45.176"/><line class="cls-1" x1="18.311" y1="19.256" x2="12.4385" y2="13.397"/><line class="cls-1" x1="51.08402" y1="12.91598" x2="44.97792" y2="19.02208"/></g></svg>